{
  "accessors": [
    {
      "bufferView": 2,
      "componentType": 5126,
      "count": 65532,
      "max": [
        9.524675369262695,
        -1.4367164373397827,
        6.945610046386719
      ],
      "min": [
        -7.268134593963623,
        -31.66923713684082,
        -5.790051460266113
      ],
      "type": "VEC3"
    },
    {
      "bufferView": 2,
      "byteOffset": 786384,
      "componentType": 5126,
      "count": 65532,
      "max": [
        0.9999994039535522,
        0.9997456669807434,
        0.9999992847442627
      ],
      "min": [
        -0.9999992251396179,
        -0.9999995827674866,
        -0.9999998211860657
      ],
      "type": "VEC3"
    },
    {
      "bufferView": 1,
      "componentType": 5126,
      "count": 65532,
      "max": [
        0.9996479749679565,
        0.9998779892921448
      ],
      "min": [
        0.00012199999764561653,
        0.00022200000239536166
      ],
      "type": "VEC2"
    },
    {
      "bufferView": 0,
      "componentType": 5125,
      "count": 287103,
      "type": "SCALAR"
    },
    {
      "bufferView": 2,
      "byteOffset": 1572768,
      "componentType": 5126,
      "count": 65532,
      "max": [
        8.596695899963379,
        -1.530053973197937,
        6.945610046386719
      ],
      "min": [
        -6.163612365722656,
        -31.08045196533203,
        -5.547759056091309
      ],
      "type": "VEC3"
    },
    {
      "bufferView": 2,
      "byteOffset": 2359152,
      "componentType": 5126,
      "count": 65532,
      "max": [
        0.9999996423721313,
        0.9999900460243225,
        0.9999150633811951
      ],
      "min": [
        -0.9999977946281433,
        -0.9999980926513672,
        -0.9999999403953552
      ],
      "type": "VEC3"
    },
    {
      "bufferView": 1,
      "byteOffset": 524256,
      "componentType": 5126,
      "count": 65532,
      "max": [
        0.9997829794883728,
        0.9998779892921448
      ],
      "min": [
        0.00012199999764561653,
        0.00021399999968707561
      ],
      "type": "VEC2"
    },
    {
      "bufferView": 0,
      "byteOffset": 1148412,
      "componentType": 5125,
      "count": 271668,
      "type": "SCALAR"
    },
    {
      "bufferView": 2,
      "byteOffset": 3145536,
      "componentType": 5126,
      "count": 65532,
      "max": [
        9.451475143432617,
        -1.4699525833129883,
        6.87039041519165
      ],
      "min": [
        -7.463100910186768,
        -34.79558563232422,
        -4.5203633308410645
      ],
      "type": "VEC3"
    },
    {
      "bufferView": 2,
      "byteOffset": 3931920,
      "componentType": 5126,
      "count": 65532,
      "max": [
        0.9999997019767761,
        0.9998299479484558,
        0.9999998807907104
      ],
      "min": [
        -0.9999999403953552,
        -0.999997079372406,
        -0.999972939491272
      ],
      "type": "VEC3"
    },
    {
      "bufferView": 1,
      "byteOffset": 1048512,
      "componentType": 5126,
      "count": 65532,
      "max": [
        0.9998120069503784,
        0.9998779892921448
      ],
      "min": [
        0.00012199999764561653,
        0.00019999999494757503
      ],
      "type": "VEC2"
    },
    {
      "bufferView": 0,
      "byteOffset": 2235084,
      "componentType": 5125,
      "count": 249537,
      "type": "SCALAR"
    },
    {
      "bufferView": 2,
      "byteOffset": 4718304,
      "componentType": 5126,
      "count": 65532,
      "max": [
        9.142742156982422,
        -8.798093795776367,
        5.390536308288574
      ],
      "min": [
        -8.27962589263916,
        -34.766395568847656,
        -4.67202091217041
      ],
      "type": "VEC3"
    },
    {
      "bufferView": 2,
      "byteOffset": 5504688,
      "componentType": 5126,
      "count": 65532,
      "max": [
        0.9999582171440125,
        0.9999842643737793,
        0.9999995827674866
      ],
      "min": [
        -0.9999759197235107,
        -0.9999397397041321,
        -0.999952495098114
      ],
      "type": "VEC3"
    },
    {
      "bufferView": 1,
      "byteOffset": 1572768,
      "componentType": 5126,
      "count": 65532,
      "max": [
        0.9997720122337341,
        0.9998779892921448
      ],
      "min": [
        0.00012199999764561653,
        0.00020300000323913991
      ],
      "type": "VEC2"
    },
    {
      "bufferView": 0,
      "byteOffset": 3233232,
      "componentType": 5125,
      "count": 248271,
      "type": "SCALAR"
    },
    {
      "bufferView": 2,
      "byteOffset": 6291072,
      "componentType": 5126,
      "count": 65532,
      "max": [
        9.092503547668457,
        -1.506724238395691,
        6.8270649909973145
      ],
      "min": [
        -5.431355953216553,
        -33.68385314941406,
        -4.829264163970947
      ],
      "type": "VEC3"
    },
    {
      "bufferView": 2,
      "byteOffset": 7077456,
      "componentType": 5126,
      "count": 65532,
      "max": [
        1.0,
        0.9999957084655762,
        0.999998927116394
      ],
      "min": [
        -0.9999648928642273,
        -0.9999994039535522,
        -0.9999948143959045
      ],
      "type": "VEC3"
    },
    {
      "bufferView": 1,
      "byteOffset": 2097024,
      "componentType": 5126,
      "count": 65532,
      "max": [
        0.9997699856758118,
        0.9998779892921448
      ],
      "min": [
        0.00012199999764561653,
        0.0002010000025620684
      ],
      "type": "VEC2"
    },
    {
      "bufferView": 0,
      "byteOffset": 4226316,
      "componentType": 5125,
      "count": 238368,
      "type": "SCALAR"
    },
    {
      "bufferView": 2,
      "byteOffset": 7863840,
      "componentType": 5126,
      "count": 65533,
      "max": [
        9.142742156982422,
        -1.867751121520996,
        5.581797122955322
      ],
      "min": [
        -6.105416297912598,
        -30.22108268737793,
        -5.682328224182129
      ],
      "type": "VEC3"
    },
    {
      "bufferView": 2,
      "byteOffset": 8650236,
      "componentType": 5126,
      "count": 65533,
      "max": [
        0.9999818205833435,
        0.9999812245368958,
        0.9999986886978149
      ],
      "min": [
        -0.9999935030937195,
        -0.9999999403953552,
        -0.9999997615814209
      ],
      "type": "VEC3"
    },
    {
      "bufferView": 1,
      "byteOffset": 2621280,
      "componentType": 5126,
      "count": 65533,
      "max": [
        0.9998080134391785,
        0.9998779892921448
      ],
      "min": [
        0.00012199999764561653,
        0.0002209999947808683
      ],
      "type": "VEC2"
    },
    {
      "bufferView": 0,
      "byteOffset": 5179788,
      "componentType": 5125,
      "count": 217194,
      "type": "SCALAR"
    },
    {
      "bufferView": 2,
      "byteOffset": 9436632,
      "componentType": 5126,
      "count": 65532,
      "max": [
        9.524675369262695,
        -1.4733552932739258,
        6.945610046386719
      ],
      "min": [
        -8.240008354187012,
        -34.671653747558594,
        -5.684023857116699
      ],
      "type": "VEC3"
    },
    {
      "bufferView": 2,
      "byteOffset": 10223016,
      "componentType": 5126,
      "count": 65532,
      "max": [
        0.9999990463256836,
        0.9999629855155945,
        0.9999995827674866
      ],
      "min": [
        -0.9999999403953552,
        -0.9999995827674866,
        -0.9999904632568359
      ],
      "type": "VEC3"
    },
    {
      "bufferView": 1,
      "byteOffset": 3145544,
      "componentType": 5126,
      "count": 65532,
      "max": [
        0.9998049736022949,
        0.9998779892921448
      ],
      "min": [
        0.00012199999764561653,
        0.0001880000054370612
      ],
      "type": "VEC2"
    },
    {
      "bufferView": 0,
      "byteOffset": 6048564,
      "componentType": 5125,
      "count": 205134,
      "type": "SCALAR"
    },
    {
      "bufferView": 2,
      "byteOffset": 11009400,
      "componentType": 5126,
      "count": 13778,
      "max": [
        8.814959526062012,
        -1.4367164373397827,
        6.945610046386719
      ],
      "min": [
        -7.188216686248779,
        -27.213693618774414,
        -5.6205973625183105
      ],
      "type": "VEC3"
    },
    {
      "bufferView": 2,
      "byteOffset": 11174736,
      "componentType": 5126,
      "count": 13778,
      "max": [
        0.9984537959098816,
        0.9821446537971497,
        0.9999990463256836
      ],
      "min": [
        -0.9999992251396179,
        -0.9999923706054688,
        -0.9999977350234985
      ],
      "type": "VEC3"
    },
    {
      "bufferView": 1,
      "byteOffset": 3669800,
      "componentType": 5126,
      "count": 13778,
      "max": [
        0.9996569752693176,
        0.9998779892921448
      ],
      "min": [
        0.00012199999764561653,
        0.0002410000015515834
      ],
      "type": "VEC2"
    },
    {
      "bufferView": 0,
      "byteOffset": 6869100,
      "componentType": 5125,
      "count": 38610,
      "type": "SCALAR"
    },
    {
      "bufferView": 2,
      "byteOffset": 11340072,
      "componentType": 5126,
      "count": 3445,
      "max": [
        9.524676322937012,
        -1.1748285293579102,
        6.945611476898193
      ],
      "min": [
        -7.268136501312256,
        -1.9354932308197021,
        -5.7900519371032715
      ],
      "type": "VEC3"
    },
    {
      "bufferView": 2,
      "byteOffset": 11381412,
      "componentType": 5126,
      "count": 3445,
      "max": [
        1.0,
        0.9999769926071167,
        1.0
      ],
      "min": [
        -1.0,
        -0.9999865293502808,
        -1.0
      ],
      "type": "VEC3"
    },
    {
      "bufferView": 1,
      "byteOffset": 3780024,
      "componentType": 5126,
      "count": 3445,
      "max": [
        0.0,
        0.0
      ],
      "min": [
        0.0,
        0.0
      ],
      "type": "VEC2"
    },
    {
      "bufferView": 0,
      "byteOffset": 7023540,
      "componentType": 5125,
      "count": 16581,
      "type": "SCALAR"
    }
  ],
  "asset": {
    "extras": {
      "author": "noe-3d.at (https://sketchfab.com/www.noe-3d.at)",
      "license": "CC0-1.0 (http://creativecommons.org/publicdomain/zero/1.0/)",
      "source": "https://sketchfab.com/3d-models/herkules-und-kalliope-0caca2b9956844caa9893968d118373a",
      "title": "Herkules und Kalliope"
    },
    "generator": "Sketchfab-12.63.0",
    "version": "2.0"
  },
  "bufferViews": [
    {
      "buffer": 0,
      "byteLength": 7089864,
      "name": "floatBufferViews",
      "target": 34963
    },
    {
      "buffer": 0,
      "byteLength": 3807584,
      "byteOffset": 7089864,
      "byteStride": 8,
      "name": "floatBufferViews",
      "target": 34962
    },
    {
      "buffer": 0,
      "byteLength": 11422752,
      "byteOffset": 10897448,
      "byteStride": 12,
      "name": "floatBufferViews",
      "target": 34962
    }
  ],
  "buffers": [
    {
      "byteLength": 22320200,
      "uri": "scene.bin"
    }
  ],
  "images": [
    {
      "uri": "textures/Herkules_Kalliope_O_Material_u1_v1_baseColor.png"
    }
  ],
  "materials": [
    {
      "doubleSided": true,
      "name": "Herkules_Kalliope_O_Material_u1_v1",
      "pbrMetallicRoughness": {
        "baseColorTexture": {
          "index": 0
        },
        "metallicFactor": 0.0
      }
    }
  ],
  "meshes": [
    {
      "name": "Object_0",
      "primitives": [
        {
          "attributes": {
            "NORMAL": 1,
            "POSITION": 0,
            "TEXCOORD_0": 2
          },
          "indices": 3,
          "material": 0,
          "mode": 4
        }
      ]
    },
    {
      "name": "Object_1",
      "primitives": [
        {
          "attributes": {
            "NORMAL": 5,
            "POSITION": 4,
            "TEXCOORD_0": 6
          },
          "indices": 7,
          "material": 0,
          "mode": 4
        }
      ]
    },
    {
      "name": "Object_2",
      "primitives": [
        {
          "attributes": {
            "NORMAL": 9,
            "POSITION": 8,
            "TEXCOORD_0": 10
          },
          "indices": 11,
          "material": 0,
          "mode": 4
        }
      ]
    },
    {
      "name": "Object_3",
      "primitives": [
        {
          "attributes": {
            "NORMAL": 13,
            "POSITION": 12,
            "TEXCOORD_0": 14
          },
          "indices": 15,
          "material": 0,
          "mode": 4
        }
      ]
    },
    {
      "name": "Object_4",
      "primitives": [
        {
          "attributes": {
            "NORMAL": 17,
            "POSITION": 16,
            "TEXCOORD_0": 18
          },
          "indices": 19,
          "material": 0,
          "mode": 4
        }
      ]
    },
    {
      "name": "Object_5",
      "primitives": [
        {
          "attributes": {
            "NORMAL": 21,
            "POSITION": 20,
            "TEXCOORD_0": 22
          },
          "indices": 23,
          "material": 0,
          "mode": 4
        }
      ]
    },
    {
      "name": "Object_6",
      "primitives": [
        {
          "attributes": {
            "NORMAL": 25,
            "POSITION": 24,
            "TEXCOORD_0": 26
          },
          "indices": 27,
          "material": 0,
          "mode": 4
        }
      ]
    },
    {
      "name": "Object_7",
      "primitives": [
        {
          "attributes": {
            "NORMAL": 29,
            "POSITION": 28,
            "TEXCOORD_0": 30
          },
          "indices": 31,
          "material": 0,
          "mode": 4
        }
      ]
    },
    {
      "name": "Object_8",
      "primitives": [
        {
          "attributes": {
            "NORMAL": 33,
            "POSITION": 32,
            "TEXCOORD_0": 34
          },
          "indices": 35,
          "material": 0,
          "mode": 4
        }
      ]
    }
  ],
  "nodes": [
    {
      "children": [
        1
      ],
      "matrix": [
        1.0,
        0.0,
        0.0,
        0.0,
        0.0,
        -0.9999643564224243,
        0.008446361869573371,
        0.0,
        0.0,
        -0.008446361869573371,
        -0.9999643564224243,
        0.0,
        0.0,
        -17.40190696716309,
        18.714881896972653,
        1.0
      ],
      "name": "Sketchfab_model"
    },
    {
      "children": [
        2,
        3,
        4,
        5,
        6,
        7,
        8,
        9,
        10
      ],
      "name": "Herkules_Kalliope_C.obj.cleaner.materialmerger.gles"
    },
    {
      "mesh": 0,
      "name": "Object_2"
    },
    {
      "mesh": 1,
      "name": "Object_3"
    },
    {
      "mesh": 2,
      "name": "Object_4"
    },
    {
      "mesh": 3,
      "name": "Object_5"
    },
    {
      "mesh": 4,
      "name": "Object_6"
    },
    {
      "mesh": 5,
      "name": "Object_7"
    },
    {
      "mesh": 6,
      "name": "Object_8"
    },
    {
      "mesh": 7,
      "name": "Object_9"
    },
    {
      "mesh": 8,
      "name": "Object_10"
    }
  ],
  "samplers": [
    {
      "magFilter": 9729,
      "minFilter": 9987,
      "wrapS": 10497,
      "wrapT": 10497
    }
  ],
  "scene": 0,
  "scenes": [
    {
      "name": "Sketchfab_Scene",
      "nodes": [
        0
      ]
    }
  ],
  "textures": [
    {
      "sampler": 0,
      "source": 0
    }
  ]
}
