{
  "accessors": [
    {
      "bufferView": 2,
      "componentType": 5126,
      "count": 1892,
      "max": [
        0.5537459850311279,
        0.7210310101509094,
        0.5544099807739258
      ],
      "min": [
        -0.5537459850311279,
        -0.5622299909591675,
        -0.5503230094909668
      ],
      "type": "VEC3"
    },
    {
      "bufferView": 2,
      "byteOffset": 22704,
      "componentType": 5126,
      "count": 1892,
      "max": [
        0.9985988140106201,
        0.9744047522544861,
        0.9978542327880859
      ],
      "min": [
        -0.9985988140106201,
        -0.9744047522544861,
        -0.9983863830566406
      ],
      "type": "VEC3"
    },
    {
      "bufferView": 3,
      "componentType": 5126,
      "count": 1892,
      "max": [
        1.0,
        0.9300541877746582,
        0.9999992251396179,
        1.0
      ],
      "min": [
        -1.0,
        -0.9300540685653687,
        -0.9999993443489075,
        1.0
      ],
      "type": "VEC4"
    },
    {
      "bufferView": 1,
      "componentType": 5126,
      "count": 1892,
      "max": [
        0.9962589740753174,
        0.8694900274276733
      ],
      "min": [
        0.0034650000743567944,
        -0.0016870000399649143
      ],
      "type": "VEC2"
    },
    {
      "bufferView": 0,
      "componentType": 5125,
      "count": 9912,
      "type": "SCALAR"
    },
    {
      "bufferView": 2,
      "byteOffset": 45408,
      "componentType": 5126,
      "count": 780,
      "max": [
        1.1018600463867188,
        0.011142999865114689,
        1.088644027709961
      ],
      "min": [
        -1.1018630266189575,
        -0.011142999865114689,
        -1.0886449813842773
      ],
      "type": "VEC3"
    },
    {
      "bufferView": 2,
      "byteOffset": 54768,
      "componentType": 5126,
      "count": 780,
      "max": [
        1.0,
        1.0,
        1.0
      ],
      "min": [
        -1.0,
        -1.0,
        -1.0
      ],
      "type": "VEC3"
    },
    {
      "bufferView": 3,
      "byteOffset": 30272,
      "componentType": 5126,
      "count": 780,
      "max": [
        1.0,
        0.5971639156341553,
        1.0,
        1.0
      ],
      "min": [
        0.0,
        -0.5971639156341553,
        -1.0,
        -1.0
      ],
      "type": "VEC4"
    },
    {
      "bufferView": 1,
      "byteOffset": 15136,
      "componentType": 5126,
      "count": 780,
      "max": [
        0.9124680161476135,
        0.9863070249557495
      ],
      "min": [
        0.08753199875354767,
        0.16384999454021454
      ],
      "type": "VEC2"
    },
    {
      "bufferView": 0,
      "byteOffset": 39648,
      "componentType": 5125,
      "count": 4680,
      "type": "SCALAR"
    },
    {
      "bufferView": 2,
      "byteOffset": 64128,
      "componentType": 5126,
      "count": 342,
      "max": [
        0.28104498982429504,
        1.6055699586868286,
        0.28546398878097534
      ],
      "min": [
        -0.3119029998779297,
        -1.1739070415496826,
        -0.2835890054702759
      ],
      "type": "VEC3"
    },
    {
      "bufferView": 2,
      "byteOffset": 68232,
      "componentType": 5126,
      "count": 342,
      "max": [
        0.9989535808563232,
        0.73070228099823,
        0.9967592358589172
      ],
      "min": [
        -0.9383801817893982,
        -0.6799858808517456,
        -0.9990335702896118
      ],
      "type": "VEC3"
    },
    {
      "bufferView": 3,
      "byteOffset": 42752,
      "componentType": 5126,
      "count": 342,
      "max": [
        0.9492921829223633,
        0.9951207041740417,
        0.8360164165496826,
        1.0
      ],
      "min": [
        -0.9548941850662231,
        0.0650525838136673,
        -0.9768643379211426,
        1.0
      ],
      "type": "VEC4"
    },
    {
      "bufferView": 1,
      "byteOffset": 21376,
      "componentType": 5126,
      "count": 342,
      "max": [
        0.9575799703598022,
        0.9859870076179504
      ],
      "min": [
        0.03252299875020981,
        0.026124000549316406
      ],
      "type": "VEC2"
    },
    {
      "bufferView": 0,
      "byteOffset": 58368,
      "componentType": 5125,
      "count": 414,
      "type": "SCALAR"
    },
    {
      "bufferView": 2,
      "byteOffset": 72336,
      "componentType": 5126,
      "count": 4553,
      "max": [
        0.6622030138969421,
        0.3025999963283539,
        0.6610620021820068
      ],
      "min": [
        -0.662202000617981,
        -0.3010520040988922,
        -0.6609830260276794
      ],
      "type": "VEC3"
    },
    {
      "bufferView": 2,
      "byteOffset": 126972,
      "componentType": 5126,
      "count": 4553,
      "max": [
        0.9947207570075989,
        0.9999144077301025,
        0.998327374458313
      ],
      "min": [
        -0.9947207570075989,
        -0.999914288520813,
        -0.9982503056526184
      ],
      "type": "VEC3"
    },
    {
      "bufferView": 3,
      "byteOffset": 48224,
      "componentType": 5126,
      "count": 4553,
      "max": [
        0.9999690651893616,
        0.9984509944915771,
        1.0,
        1.0
      ],
      "min": [
        -1.0,
        -0.9995693564414978,
        -1.0,
        -1.0
      ],
      "type": "VEC4"
    },
    {
      "bufferView": 1,
      "byteOffset": 24112,
      "componentType": 5126,
      "count": 4553,
      "max": [
        0.9976149797439575,
        0.9969620108604431
      ],
      "min": [
        0.004282999783754349,
        0.018073000013828278
      ],
      "type": "VEC2"
    },
    {
      "bufferView": 0,
      "byteOffset": 60024,
      "componentType": 5125,
      "count": 17844,
      "type": "SCALAR"
    }
  ],
  "asset": {
    "extras": {
      "author": "Sunny Man (https://sketchfab.com/sunnyman)",
      "license": "CC-BY-4.0 (http://creativecommons.org/licenses/by/4.0/)",
      "source": "https://sketchfab.com/3d-models/skyforge-weapon-art-2926db067ca740519e55211d5d081f41",
      "title": "Skyforge Weapon ART"
    },
    "generator": "Sketchfab-12.68.0",
    "version": "2.0"
  },
  "bufferViews": [
    {
      "buffer": 0,
      "byteLength": 131400,
      "name": "floatBufferViews",
      "target": 34963
    },
    {
      "buffer": 0,
      "byteLength": 60536,
      "byteOffset": 131400,
      "byteStride": 8,
      "name": "floatBufferViews",
      "target": 34962
    },
    {
      "buffer": 0,
      "byteLength": 181608,
      "byteOffset": 191936,
      "byteStride": 12,
      "name": "floatBufferViews",
      "target": 34962
    },
    {
      "buffer": 0,
      "byteLength": 121072,
      "byteOffset": 373544,
      "byteStride": 16,
      "name": "floatBufferViews",
      "target": 34962
    }
  ],
  "buffers": [
    {
      "byteLength": 494616,
      "uri": "scene.bin"
    }
  ],
  "extensionsUsed": [
    "KHR_materials_transmission"
  ],
  "images": [
    {
      "uri": "textures/Material.001_baseColor.jpeg"
    },
    {
      "uri": "textures/Material.001_metallicRoughness.png"
    },
    {
      "uri": "textures/Material.001_normal.jpeg"
    },
    {
      "uri": "textures/Material.001_NONE_baseColor.jpeg"
    },
    {
      "uri": "textures/Material.001_NONE_metallicRoughness.png"
    },
    {
      "uri": "textures/Material.001_NONE_normal.jpeg"
    },
    {
      "uri": "textures/None.001_baseColor.jpeg"
    },
    {
      "uri": "textures/None.001_metallicRoughness.png"
    },
    {
      "uri": "textures/None.001_normal.jpeg"
    },
    {
      "uri": "textures/UV_Material_baseColor.png"
    },
    {
      "uri": "textures/UV_Material_metallicRoughness.png"
    },
    {
      "uri": "textures/UV_Material_normal.jpeg"
    }
  ],
  "materials": [
    {
      "doubleSided": true,
      "name": "Material.001",
      "normalTexture": {
        "index": 2
      },
      "occlusionTexture": {
        "index": 1
      },
      "pbrMetallicRoughness": {
        "baseColorTexture": {
          "index": 0
        },
        "metallicRoughnessTexture": {
          "index": 1
        },
        "roughnessFactor": 0.6907393293
      }
    },
    {
      "doubleSided": true,
      "name": "Material.001_NONE",
      "normalTexture": {
        "index": 5
      },
      "pbrMetallicRoughness": {
        "baseColorTexture": {
          "index": 3
        },
        "metallicRoughnessTexture": {
          "index": 4
        }
      }
    },
    {
      "alphaMode": "BLEND",
      "doubleSided": true,
      "emissiveFactor": [
        0.0,
        0.0018571479420731688,
        0.01714939024390244
      ],
      "extensions": {
        "KHR_materials_transmission": {
          "transmissionFactor": 0.2421875
        }
      },
      "name": "None.001",
      "normalTexture": {
        "index": 8
      },
      "pbrMetallicRoughness": {
        "baseColorFactor": [
          1.0,
          1.0,
          1.0,
          0.7578125
        ],
        "baseColorTexture": {
          "index": 6
        },
        "metallicRoughnessTexture": {
          "index": 7
        },
        "roughnessFactor": 0.4590320122
      }
    },
    {
      "doubleSided": true,
      "name": "UV_Material",
      "normalTexture": {
        "index": 11
      },
      "occlusionTexture": {
        "index": 10
      },
      "pbrMetallicRoughness": {
        "baseColorTexture": {
          "index": 9
        },
        "metallicFactor": 0.92,
        "metallicRoughnessTexture": {
          "index": 10
        },
        "roughnessFactor": 0.75
      }
    }
  ],
  "meshes": [
    {
      "name": "Object_0",
      "primitives": [
        {
          "attributes": {
            "NORMAL": 1,
            "POSITION": 0,
            "TANGENT": 2,
            "TEXCOORD_0": 3
          },
          "indices": 4,
          "material": 0,
          "mode": 4
        }
      ]
    },
    {
      "name": "Object_1",
      "primitives": [
        {
          "attributes": {
            "NORMAL": 6,
            "POSITION": 5,
            "TANGENT": 7,
            "TEXCOORD_0": 8
          },
          "indices": 9,
          "material": 1,
          "mode": 4
        }
      ]
    },
    {
      "name": "Object_2",
      "primitives": [
        {
          "attributes": {
            "NORMAL": 11,
            "POSITION": 10,
            "TANGENT": 12,
            "TEXCOORD_0": 13
          },
          "indices": 14,
          "material": 2,
          "mode": 4
        }
      ]
    },
    {
      "name": "Object_3",
      "primitives": [
        {
          "attributes": {
            "NORMAL": 16,
            "POSITION": 15,
            "TANGENT": 17,
            "TEXCOORD_0": 18
          },
          "indices": 19,
          "material": 3,
          "mode": 4
        }
      ]
    }
  ],
  "nodes": [
    {
      "children": [
        1
      ],
      "matrix": [
        1.0,
        0.0,
        0.0,
        0.0,
        0.0,
        2.220446049250313e-16,
        -1.0,
        0.0,
        0.0,
        1.0,
        2.220446049250313e-16,
        0.0,
        0.0,
        0.0,
        0.0,
        1.0
      ],
      "name": "Sketchfab_model"
    },
    {
      "children": [
        2,
        3,
        4,
        5
      ],
      "name": "FreezGunFinal.obj.cleaner.gles"
    },
    {
      "mesh": 0,
      "name": "Object_2"
    },
    {
      "mesh": 1,
      "name": "Object_3"
    },
    {
      "mesh": 2,
      "name": "Object_4"
    },
    {
      "mesh": 3,
      "name": "Object_5"
    }
  ],
  "samplers": [
    {
      "magFilter": 9729,
      "minFilter": 9987,
      "wrapS": 10497,
      "wrapT": 10497
    }
  ],
  "scene": 0,
  "scenes": [
    {
      "name": "Sketchfab_Scene",
      "nodes": [
        0
      ]
    }
  ],
  "textures": [
    {
      "sampler": 0,
      "source": 0
    },
    {
      "sampler": 0,
      "source": 1
    },
    {
      "sampler": 0,
      "source": 2
    },
    {
      "sampler": 0,
      "source": 3
    },
    {
      "sampler": 0,
      "source": 4
    },
    {
      "sampler": 0,
      "source": 5
    },
    {
      "sampler": 0,
      "source": 6
    },
    {
      "sampler": 0,
      "source": 7
    },
    {
      "sampler": 0,
      "source": 8
    },
    {
      "sampler": 0,
      "source": 9
    },
    {
      "sampler": 0,
      "source": 10
    },
    {
      "sampler": 0,
      "source": 11
    }
  ]
}
